<mxfile host="app.diagrams.net" agent="Mozilla/5.0 (Windows NT 10.0; Win64; x64) AppleWebKit/537.36 (KHTML, like Gecko) Chrome/128.0.0.0 Safari/537.36" version="24.7.10">
  <diagram name="Page-1" id="0SMfLR7RUTZKqPXN8aoV">
    <mxGraphModel dx="2581" dy="815" grid="1" gridSize="10" guides="1" tooltips="1" connect="1" arrows="1" fold="1" page="1" pageScale="1" pageWidth="1100" pageHeight="850" math="0" shadow="0">
      <root>
        <mxCell id="0" />
        <mxCell id="1" parent="0" />
        <mxCell id="Om9hFEvuJD6P770_q4XF-56" value="" style="rounded=0;whiteSpace=wrap;html=1;" vertex="1" parent="1">
          <mxGeometry x="-947" y="540.29" width="217" height="139.71" as="geometry" />
        </mxCell>
        <mxCell id="Om9hFEvuJD6P770_q4XF-1" value="" style="shape=image;verticalLabelPosition=bottom;labelBackgroundColor=default;verticalAlign=top;aspect=fixed;imageAspect=0;image=data:image/webp,UklGRiwUAABXRUJQVlA4TCAUAAAv/8SfELWO2rZtGOf/t3vPGBFq27ZhoN0tuQIc+hK4jLjIFQ+Vvy5wS///ts2cDyhCu5t23itSxdl+lJ4YIyBQej/KLfRmpvd2JTneBg9TfJx6NclKVOEM+adeEfxnBhj+J/4plN58sWYsWo4s017aERKw/TPkJjM3m8Z2co1t4xrbxlWxndS2bdu2bdu2kTbcm935U4IkSW4jZfIELOee2SWIDjSqqA9QIP7+I5WICAv+/MR/+e+///7777///vvvv//++++///7777///vvvv//++++///7777///vvvv//++++///7777///vvvv//++++///7777///vvvv//++++///7777///pcJhgR9Ar39EmwBn0dkNcn9uwaRgZ7OkLPEflTOQRTAwNNGXGinQzQkzpLPGlHAKUm7IIbZiAR2j864SS5Ty5u4CkgxxAw+4sWbkG7dED0dYRu7tKWWh1IE64hGIkxSq8IQpZdhnI7RMXa2L2bSfAoPJMUQi/CIchyL2h+F0gkXwGmIr0bIxn7kxVi+TvKR4p3OMfwOcNdsiEK3/DFx3lkpvFnOWycPhelcr3dBnzazIQna8isn3wtlMTygdQwRHzG9t1+JMpRWAVveeaOlSGInv6WbNqKT/AUUieJaoLbuCLm7Fw40e6ns0jjfYRGF6aJex6CChGjhrbPkT1FRwkkEJ4+oWXyr/TI7IYHZujPiLHlssVfIlUm+Qy+aPz/MWZRGOCTTEXZ2L0z1kpHc1Dh/6+Rn1WYX9Gl1G5JgLO/8D2TfmWZeSl1oO4pIhKkaRwJApl2FYDpFbj61S+byGJDarghdqzJHVBwIwV5tv+/sXtgPYDJt4/wyUiDqYp4lbIFX+OUZGUls7FSWrOeTpLZLL5qfMbyfbqck5BpYMskNuIcxrF1P8hGFaR5ud4C9dhds5W3iPIeDtM+UryS8MnsTYlEEnXypTy7HpJv1Czc/J61jpodhdsKFWfzoTDmv5YLDj4ZuJM1TUZfYZiMcYPGjS2squTvFj57vujaiMdxIvLaAyi4/OjPNx3PPPXLInPMRi/h2FyS6mLcn+7RKOMWPdvKPPBjBR4cfPfd8LMYgiVcsLjwCqiOHrGzsGxb/n8uPnvOSd692IQLplhH3KI29vTrCwdSRQ3ohzH8xxY+eqzfwMWslcS8fn5nY2FfHOJziRxexbOOnw4+eez6ikzy3qSytnfyQDFEoxY8eqPYS2T7Fj55zvnXy/5vXZso29hn3MpjiR1tRyHH4KX70fPMR7YqTPEfJLfVt7NXTq1CKH/3YdK8/5yWtO8Kc82tol8YgiXb259k28fuHKJjiR6dayVCuO/zo+ee7sJRgrHkYM5A4+TfBFD+670gDz6Rl26HvvMjzKdmQhjjrQqj8KXLzqXUyg0cOP/r1nPObSDHJ85fJfX8b+/qM3AVT/Oi+NxP4McWPnnP+xSTP42RuamtmdnV3ikIoiuDKxk4Dk9W8A6T2xdx3L+woYhjneUlj39nMbPv+EQql+NED9DCaFdBJPuLnvXthRGMWgSRuJCNSHTdvAVTefaMlz2AvbVP86Dm/ydyhuyCJy3tFjy3cN1qOUCjFjy51yeSAy4+eez6GGwmBk0XxnyJnyTaY4kdnJK/krKS2hW4053yHTfLs6qUONNyBJUcolOJHl5aUccPhR6+94Efzix1FgpnZ9vkxCqDyh9jJZ4b5aO54xI9+zaJeHzOz6xF5E0zxo0tXhvDWI340b1hWeJuZrY7x02CKH526HCzkuQ/8aLn8aL4y5pGnk796E0zxo3uBzOL/JH/5bt78aCfP/XxKZuHwo4Oo/DFxprdRRLCFb9JNDDH1gx/NfWpK21CKH23u7oWDXr14Nk7xo704cghX88ZMNZjiR18dE5u4kHOULi+OHBLRSJjkOUVBaRRY8aMHRr0CTnnEj6aTw3lBOMWP3joUwe9X+4kWLnvCj+6yLkhiA/FlLzcfTPGj+/bU8kjSLnjCj+ZLsikNQ2nsu4CKH51aJNPcE72M+Hnzoy+XS4n/TO8HTA0sCab40X0vRvPNI340z5L5qaPzajuE4kcfoSOysrFT72QFb/zgRztHDuEdg/uuzu6FZ9xdKMWPtn4Yi+G94Edf3nZAEneS0alBaMWPzpO/cSe/PeJHc4OS37U0M9uGU/zoUptU9kpadpkf/GgYZ4qKP5E4+W0wNQP8DOUlnN4Aatsu3WjO+Y44ybOvlz7Qcd5oOSXBFD+6tKCQKx7xo/nLniIltOJHZ3r5cG55wo/uwDiPwNJexACFUhOEGSKXH10608JLj/jRvGNl4e+sex5O8aNTh4O5PPWIH813JnzYO7TiR/f8mUabdLN+5Qc/mof59MwqtOJHF6Gs47NH/GgeU1c6mJltV0comDrRy14Ma33iR3Mtb800HH70s3CKH13kcJB2j/jRnKFfaRJY8aMH+r08jk3yHXHeeZciSPebvF9oxY/+fpWfqOeCT/xotpJUqgZTeRen0Lehknse8aP5nmxNox2cQkDFj05NkknuiV5G/LzzDj+aTmb3Q8IpfvQZ5+T7Hozgk8uPhvnAj+ZFsih1Dab40a/uVjZ26p4s5ZVH/Gg+MrTvFlDxo69t7L6M+XR7Mg/oDkjibjI+NZqaAX4wxY9O45Lt/PCIH81tyn/XOrDiR5fqJLPN5Uf7MQN8zhW1f8IFVvxoywdyAl6SL/xoDvdyBnouPzqYypcm9H8lRbCOBD/40fxnf5FlEwdU/OhMKx/MdT/40esJPxrG6l5UOHWilyvnfZbSkQae+VHJF4ciyEfWFiEBFT/aGViS2eQzeDRVkXEf+NH8ZsqHfUIrfvSHfZnELx/40bDXTp7H+azMNqDiR69s7CKIVXzwqJIvPKepdAqs+NED1ItkxUZa33lSyRdu5EMybZcfHU5V8qVIYx9tHvGjucjA0iyYogieEic/0O1lcsALfvSmS2NoJRSczItCK370n5CikrOSblpP+NHsJKXUCKz40b9rRTk33YqMe8GP5tc3bs/jgyl+tLn86NQwGcNdSR2IWUS94EfTzYJ+n9CKH913ZQjvHX50JHrBj+Z1siz1dPnRRyiY4kenLslCnnvBj3Yr+cJXRvY9nXxAxY/uBzODdkDL5fzPfsE90ctkcmoeUPGjnQnCpBHJFr54wY9+5/CjeUBV33aKHx1KnehlqUICm3ziR3PpJxq+XyW04kfnco7SNXXkEB/40Rzv5Q0MA6tKvpRGFHDaI340HRwqcl1+9BAFU/zoTCNvmeqspR+VfGF9L3agHFjxo0s7annoBz86ppM8X9hYhJqZ3QVU/Oisdz7t0iN+NP+Y3gsIrfjRH/ZiPN+m+NE+HDmEZwfz3BO9DKj40YUfK3jrET+aVwwund2KjL8JpzpryRJ4j/jR3MpHZvqhFT+6SGI3v/3gR68nea5SXEqnKvkSTHXWspd2L2n91g9+9IYzeXmGnUq+hFP86D/FRSmnETypyHgXJLGXtFI7sJoB/mPpXiFXPeJH8+cbd+cpU/zo0Kqzlp7wo1GwpB9mUwNLQqkjh/RdaOG101lLP/jRvE1WpH7OuiMSTvGjU7tkLk994EfL5UfznXF9r9CqIuP9AKa6nbX0gx/Nw2R62ju04kenocl6PnnEj+YxdX0Hlx8dTp3o5cNo1vrEj+bKT7R+v0ZAVckXmzjP5SAdfvCjO8Ikz5lewcA4sOJHl/rkccyLioy7/Gi6OFrIp/jRwVRFxjOVvJ4LPvGj2dJLGKi4A0uOUShVyZfShkruecSP5hubi6hgih9tLj86M88ncN+L/LuI34UbiXZm94JCK370I3dGfsGjSr7w8mBB6ubyo8OpSr4UnizltUf8aN4ztHR1+NEBVb4n86qzltzNx2TGoRU/uohjOz884kdzk/LSKrDiRw/Ue8ns8KSzljG0kjifV2VcaNVZy2IgJ3zqrCWHyCp1g6vOWnLBo4qM08a+PCPA6qylR/zoDSseRg9wYMWP7jvRwHOP+NF8SNamQcFVZy2TmVOdtfSCH81vJvb9Qit+9NuX/PKoIuM8Sman1qFVZy3ToGTNG486a8lzGvpOgRU/eoD96qwl15OhqXa4w48+RIdkuz3kxt4e4pfVdtaSfbR5xI/mwt6Ax6ZT/Ogw5yyOzvf16ghV01nL51/0qLOW8JwoBlq401nLE+Qs+UGNg7SsMGvKxmXzs3XZhCxz3xYld4TbzJ21zKs451NnLdnRSx6oBzydtVyZ2Wd0+rHM4ZPOMx0s2POxsU/xDPzosjdl3PSoIuP8YHsRF/RUZPz62uyvDL92M0xS28YsFmIxpk9f37atJN7kczMzszPJRTtrmY/hrkedtaSb+T1ZXeVHH6Jnz8abkbfbZy9fLjY0kph9pzUbpC50hfP/D3J9D+3AjcTC31Q2G+ELdNaSobz3iB/Na5YVXlP86Jo6BsjMzBYdvIoTbMZK6a5LNxc7tpHo2C8Z/x/h+fzo1PVgAS894kd/gZGP3Otq3h0DZAcWWXCWlw3Npmc1WUrmvq/tUisWFnuw/64Jz3egAwgzfHzBxP1v17LraX50L4jZtLudtfSCH839fGJmXlsr+XKCbey+L6P5qvPMeQaW0skrjCO0kFCaISHAZvlH8lbQb3Z2VxYRbPaps5bco7K0qa/86KsRMXsgTTbzUVIMk83Iy9t2bEncfTDMzM4kCwgxUTcIms2XHdAnAu0flPcS2ORTRca5kNdnKnWWHz2SmH1GjxXuGKD1e27noP3DxWZ2hhYM35FRDXwAEKVZLzc6p7OWPvCjOUZezf2ElJwgs6+fesExQOs2ZhJvHqSYHaLFwpV0daCKf0vXd7vgCz+aDg7muTWYH/175nxUFy4v/LvfEXdArDYbSRYHGmH7G28t1xXVHsyPSr6w9mH0gKvD/Og0Vnqx0cUNvRdXCs5GaIHwvdKtS1ViLz4hJcn6NLQmd9aSIYpgM2uFKcSvnl2jvLysc/48ujbmKaKqQD7wo2ljaj+gJvOjr42JVWxFjoRdAL7JfmGw8hctFAPM7/yLSZ6nydzUrjZXZPzayKtmK/Jly7+fwfZ53Bj1g5o/zGVcfXPK2VdcmvneB340r2npu5zDj67D179xqmorckQ78MHrTfE7PST2kVLVV3vBj+ZmMjLVq9X86BNsv65CuzZV/bkQq8waog766ksghjrniM2Q96Ei41zdK3wsrd/8aI5X+DLiA6CPxthQ0qz07sLaLwC6rHHk2xvpktNFyZ+i+l3Jl2Nsv+CjVpUJuuRtU7zJChSzuikv+NHs7qUNNOs4P/oEmX3wTqVbkTuiPpGzaBKsdfL8vi+S6jo/emvE6wamSk0ntEkZXt8rt0Nce+VDZy1fs6QXWusL9se7u0gAKtVSDcsPBti23soHfvT/s7zwqfUVGX9mhZXayv9b2ai8K+hNY5HLj+YbYz/sNc2Prus+4Wx/gmKqBuvbhiJEeCfPg3xKJj2PH13XNURm3N8B+EWMfOBH85Da0rYRVGR8SOzTFlrDFi3y4xNSkjdlalP86NrvEWfkA5FCixX5UJFxTjeKT0jJCBtDFwb6r0IRpIujuXyKH90c+OEsVUQXYoI6/Gg2kVCqNJBPSAlHFYmLsRvxJdmURkzzoxuGeapIWIAJJtb/qe/0wJLmYToVsQWYYtA5/OgGIr4twnQv2Qj/B7amYq4swhZHVBxpMsePZusiLBYJAKm2ai4HkGaKIkUz175cXRFW51z1WJMdoPNvkQ1xU9GIGDVAxDdzHcj1ZeIuq3F+UfFlh+ojuxrM4WpPiPVlimHdyPWtFUCN9i7ou2S2bSx6ZkZbu2ngOkX2T1qfCh14lz61zZ/1Gfj8kSvvhVjl8wi4Yk3GI4l9507t0OarGupP5isWq7zq66U2wg1GQ2I/lqbbZqtMflEdoyE3JP9T2/z0PzkzPtzAKtOOoK9d2HCm32NW+YpN1BMpmpR3e5Tl1dKbEbavM1MElc1UoAtrs2PUcKZQx4KGO/L4QV09fWL2sUztQEUjjjsgom2Em84c6n5JVUvEKh+LY6TSj75NypR+r7S2TheWZbqp5PpFUdSE5tDJGHWECq9LLQg+k/NDZMbNu/tKHjPBmo9OkRn0Zl2ZdkR95TwbKY+4VaPyCNXXAavGfu3AelbY6gdArDQ7Qc3ncobt63NU2WUjuv8GLQy+LKW2ZiyRNrPOOp9R42+hGd197SLtiBVdd0G/5mHXC4Sp59u3DZJmGLQAXYquVGYNycfIjAu6rGgrMvkLhKvzgvrbHbkuXfC0Gi4Vg7j0e72a0yRFt2Z8uYmESrYiM2PhcNqtZvv9ab/AubogtjGN4U68+Lp8s+fWmHyK7c+N+aLlzGs/AGKJ2fMFw2VEzH6TMJwf0rLt8JEiopEYsUh4927tHlv4LclmtrVmZc4Ags26FZlGs2NkiwY7QK3UNVnDD51v7h8sTWVmU6TVJvXQvnmBYoiEmbYiK42YPF5A+AxvJ7nHPntpjGQ7L/jLa25xij3MJ8GdVcIQNbH9CHqFCIrh8qLnXNOKG79nYosLH+GVnecGV9nJI2RmTHUrIvDe84LtgHj3dRm22PCzQzLiRnhqh4zt1ZAcoia3K+lvGLJWUnv5Grq5hK3Xm7Z9HcNSoodyZytyAOfrkcTsRyU/WsTxpc43b1n5Y0HO9uVAzlsb+59VokTGRWs5wxtA/OdhtJ+FNP6rl00eXQd1X32xXyKx9zIc+D64++rbPe9f2vu3b+/DvS/D3XsL/vzEf/nvv//+P/Ff/vvvv//++++///7777///vvvv//++++///7777///vvvv//++++///7777///vvvv//++++///7777///vvvv//++++//0/8l/9P/Jf//j/xX/7/NwUy;rotation=-90;" vertex="1" parent="1">
          <mxGeometry x="-1002" y="542.5" width="154" height="77" as="geometry" />
        </mxCell>
        <mxCell id="Om9hFEvuJD6P770_q4XF-2" value="" style="shape=image;verticalLabelPosition=bottom;labelBackgroundColor=default;verticalAlign=top;aspect=fixed;imageAspect=0;image=data:image/webp,UklGRiwUAABXRUJQVlA4TCAUAAAv/8SfELWO2rZtGOf/t3vPGBFq27ZhoN0tuQIc+hK4jLjIFQ+Vvy5wS///ts2cDyhCu5t23itSxdl+lJ4YIyBQej/KLfRmpvd2JTneBg9TfJx6NclKVOEM+adeEfxnBhj+J/4plN58sWYsWo4s017aERKw/TPkJjM3m8Z2co1t4xrbxlWxndS2bdu2bdu2kTbcm935U4IkSW4jZfIELOee2SWIDjSqqA9QIP7+I5WICAv+/MR/+e+///7777///vvvv//++++///7777///vvvv//++++///7777///vvvv//++++///7777///vvvv//++++///7777///vvvv//++++///7777///pcJhgR9Ar39EmwBn0dkNcn9uwaRgZ7OkLPEflTOQRTAwNNGXGinQzQkzpLPGlHAKUm7IIbZiAR2j864SS5Ty5u4CkgxxAw+4sWbkG7dED0dYRu7tKWWh1IE64hGIkxSq8IQpZdhnI7RMXa2L2bSfAoPJMUQi/CIchyL2h+F0gkXwGmIr0bIxn7kxVi+TvKR4p3OMfwOcNdsiEK3/DFx3lkpvFnOWycPhelcr3dBnzazIQna8isn3wtlMTygdQwRHzG9t1+JMpRWAVveeaOlSGInv6WbNqKT/AUUieJaoLbuCLm7Fw40e6ns0jjfYRGF6aJex6CChGjhrbPkT1FRwkkEJ4+oWXyr/TI7IYHZujPiLHlssVfIlUm+Qy+aPz/MWZRGOCTTEXZ2L0z1kpHc1Dh/6+Rn1WYX9Gl1G5JgLO/8D2TfmWZeSl1oO4pIhKkaRwJApl2FYDpFbj61S+byGJDarghdqzJHVBwIwV5tv+/sXtgPYDJt4/wyUiDqYp4lbIFX+OUZGUls7FSWrOeTpLZLL5qfMbyfbqck5BpYMskNuIcxrF1P8hGFaR5ud4C9dhds5W3iPIeDtM+UryS8MnsTYlEEnXypTy7HpJv1Czc/J61jpodhdsKFWfzoTDmv5YLDj4ZuJM1TUZfYZiMcYPGjS2squTvFj57vujaiMdxIvLaAyi4/OjPNx3PPPXLInPMRi/h2FyS6mLcn+7RKOMWPdvKPPBjBR4cfPfd8LMYgiVcsLjwCqiOHrGzsGxb/n8uPnvOSd692IQLplhH3KI29vTrCwdSRQ3ohzH8xxY+eqzfwMWslcS8fn5nY2FfHOJziRxexbOOnw4+eez6ikzy3qSytnfyQDFEoxY8eqPYS2T7Fj55zvnXy/5vXZso29hn3MpjiR1tRyHH4KX70fPMR7YqTPEfJLfVt7NXTq1CKH/3YdK8/5yWtO8Kc82tol8YgiXb259k28fuHKJjiR6dayVCuO/zo+ee7sJRgrHkYM5A4+TfBFD+670gDz6Rl26HvvMjzKdmQhjjrQqj8KXLzqXUyg0cOP/r1nPObSDHJ85fJfX8b+/qM3AVT/Oi+NxP4McWPnnP+xSTP42RuamtmdnV3ikIoiuDKxk4Dk9W8A6T2xdx3L+woYhjneUlj39nMbPv+EQql+NED9DCaFdBJPuLnvXthRGMWgSRuJCNSHTdvAVTefaMlz2AvbVP86Dm/ydyhuyCJy3tFjy3cN1qOUCjFjy51yeSAy4+eez6GGwmBk0XxnyJnyTaY4kdnJK/krKS2hW4053yHTfLs6qUONNyBJUcolOJHl5aUccPhR6+94Efzix1FgpnZ9vkxCqDyh9jJZ4b5aO54xI9+zaJeHzOz6xF5E0zxo0tXhvDWI340b1hWeJuZrY7x02CKH526HCzkuQ/8aLn8aL4y5pGnk796E0zxo3uBzOL/JH/5bt78aCfP/XxKZuHwo4Oo/DFxprdRRLCFb9JNDDH1gx/NfWpK21CKH23u7oWDXr14Nk7xo704cghX88ZMNZjiR18dE5u4kHOULi+OHBLRSJjkOUVBaRRY8aMHRr0CTnnEj6aTw3lBOMWP3joUwe9X+4kWLnvCj+6yLkhiA/FlLzcfTPGj+/bU8kjSLnjCj+ZLsikNQ2nsu4CKH51aJNPcE72M+Hnzoy+XS4n/TO8HTA0sCab40X0vRvPNI340z5L5qaPzajuE4kcfoSOysrFT72QFb/zgRztHDuEdg/uuzu6FZ9xdKMWPtn4Yi+G94Edf3nZAEneS0alBaMWPzpO/cSe/PeJHc4OS37U0M9uGU/zoUptU9kpadpkf/GgYZ4qKP5E4+W0wNQP8DOUlnN4Aatsu3WjO+Y44ybOvlz7Qcd5oOSXBFD+6tKCQKx7xo/nLniIltOJHZ3r5cG55wo/uwDiPwNJexACFUhOEGSKXH10608JLj/jRvGNl4e+sex5O8aNTh4O5PPWIH813JnzYO7TiR/f8mUabdLN+5Qc/mof59MwqtOJHF6Gs47NH/GgeU1c6mJltV0comDrRy14Ma33iR3Mtb800HH70s3CKH13kcJB2j/jRnKFfaRJY8aMH+r08jk3yHXHeeZciSPebvF9oxY/+fpWfqOeCT/xotpJUqgZTeRen0Lehknse8aP5nmxNox2cQkDFj05NkknuiV5G/LzzDj+aTmb3Q8IpfvQZ5+T7Hozgk8uPhvnAj+ZFsih1Dab40a/uVjZ26p4s5ZVH/Gg+MrTvFlDxo69t7L6M+XR7Mg/oDkjibjI+NZqaAX4wxY9O45Lt/PCIH81tyn/XOrDiR5fqJLPN5Uf7MQN8zhW1f8IFVvxoywdyAl6SL/xoDvdyBnouPzqYypcm9H8lRbCOBD/40fxnf5FlEwdU/OhMKx/MdT/40esJPxrG6l5UOHWilyvnfZbSkQae+VHJF4ciyEfWFiEBFT/aGViS2eQzeDRVkXEf+NH8ZsqHfUIrfvSHfZnELx/40bDXTp7H+azMNqDiR69s7CKIVXzwqJIvPKepdAqs+NED1ItkxUZa33lSyRdu5EMybZcfHU5V8qVIYx9tHvGjucjA0iyYogieEic/0O1lcsALfvSmS2NoJRSczItCK370n5CikrOSblpP+NHsJKXUCKz40b9rRTk33YqMe8GP5tc3bs/jgyl+tLn86NQwGcNdSR2IWUS94EfTzYJ+n9CKH913ZQjvHX50JHrBj+Z1siz1dPnRRyiY4kenLslCnnvBj3Yr+cJXRvY9nXxAxY/uBzODdkDL5fzPfsE90ctkcmoeUPGjnQnCpBHJFr54wY9+5/CjeUBV33aKHx1KnehlqUICm3ziR3PpJxq+XyW04kfnco7SNXXkEB/40Rzv5Q0MA6tKvpRGFHDaI340HRwqcl1+9BAFU/zoTCNvmeqspR+VfGF9L3agHFjxo0s7annoBz86ppM8X9hYhJqZ3QVU/Oisdz7t0iN+NP+Y3gsIrfjRH/ZiPN+m+NE+HDmEZwfz3BO9DKj40YUfK3jrET+aVwwund2KjL8JpzpryRJ4j/jR3MpHZvqhFT+6SGI3v/3gR68nea5SXEqnKvkSTHXWspd2L2n91g9+9IYzeXmGnUq+hFP86D/FRSmnETypyHgXJLGXtFI7sJoB/mPpXiFXPeJH8+cbd+cpU/zo0Kqzlp7wo1GwpB9mUwNLQqkjh/RdaOG101lLP/jRvE1WpH7OuiMSTvGjU7tkLk994EfL5UfznXF9r9CqIuP9AKa6nbX0gx/Nw2R62ju04kenocl6PnnEj+YxdX0Hlx8dTp3o5cNo1vrEj+bKT7R+v0ZAVckXmzjP5SAdfvCjO8Ikz5lewcA4sOJHl/rkccyLioy7/Gi6OFrIp/jRwVRFxjOVvJ4LPvGj2dJLGKi4A0uOUShVyZfShkruecSP5hubi6hgih9tLj86M88ncN+L/LuI34UbiXZm94JCK370I3dGfsGjSr7w8mBB6ubyo8OpSr4UnizltUf8aN4ztHR1+NEBVb4n86qzltzNx2TGoRU/uohjOz884kdzk/LSKrDiRw/Ue8ns8KSzljG0kjifV2VcaNVZy2IgJ3zqrCWHyCp1g6vOWnLBo4qM08a+PCPA6qylR/zoDSseRg9wYMWP7jvRwHOP+NF8SNamQcFVZy2TmVOdtfSCH81vJvb9Qit+9NuX/PKoIuM8Sman1qFVZy3ToGTNG486a8lzGvpOgRU/eoD96qwl15OhqXa4w48+RIdkuz3kxt4e4pfVdtaSfbR5xI/mwt6Ax6ZT/Ogw5yyOzvf16ghV01nL51/0qLOW8JwoBlq401nLE+Qs+UGNg7SsMGvKxmXzs3XZhCxz3xYld4TbzJ21zKs451NnLdnRSx6oBzydtVyZ2Wd0+rHM4ZPOMx0s2POxsU/xDPzosjdl3PSoIuP8YHsRF/RUZPz62uyvDL92M0xS28YsFmIxpk9f37atJN7kczMzszPJRTtrmY/hrkedtaSb+T1ZXeVHH6Jnz8abkbfbZy9fLjY0kph9pzUbpC50hfP/D3J9D+3AjcTC31Q2G+ELdNaSobz3iB/Na5YVXlP86Jo6BsjMzBYdvIoTbMZK6a5LNxc7tpHo2C8Z/x/h+fzo1PVgAS894kd/gZGP3Otq3h0DZAcWWXCWlw3Npmc1WUrmvq/tUisWFnuw/64Jz3egAwgzfHzBxP1v17LraX50L4jZtLudtfSCH839fGJmXlsr+XKCbey+L6P5qvPMeQaW0skrjCO0kFCaISHAZvlH8lbQb3Z2VxYRbPaps5bco7K0qa/86KsRMXsgTTbzUVIMk83Iy9t2bEncfTDMzM4kCwgxUTcIms2XHdAnAu0flPcS2ORTRca5kNdnKnWWHz2SmH1GjxXuGKD1e27noP3DxWZ2hhYM35FRDXwAEKVZLzc6p7OWPvCjOUZezf2ElJwgs6+fesExQOs2ZhJvHqSYHaLFwpV0daCKf0vXd7vgCz+aDg7muTWYH/175nxUFy4v/LvfEXdArDYbSRYHGmH7G28t1xXVHsyPSr6w9mH0gKvD/Og0Vnqx0cUNvRdXCs5GaIHwvdKtS1ViLz4hJcn6NLQmd9aSIYpgM2uFKcSvnl2jvLysc/48ujbmKaKqQD7wo2ljaj+gJvOjr42JVWxFjoRdAL7JfmGw8hctFAPM7/yLSZ6nydzUrjZXZPzayKtmK/Jly7+fwfZ53Bj1g5o/zGVcfXPK2VdcmvneB340r2npu5zDj67D179xqmorckQ78MHrTfE7PST2kVLVV3vBj+ZmMjLVq9X86BNsv65CuzZV/bkQq8waog766ksghjrniM2Q96Ei41zdK3wsrd/8aI5X+DLiA6CPxthQ0qz07sLaLwC6rHHk2xvpktNFyZ+i+l3Jl2Nsv+CjVpUJuuRtU7zJChSzuikv+NHs7qUNNOs4P/oEmX3wTqVbkTuiPpGzaBKsdfL8vi+S6jo/emvE6wamSk0ntEkZXt8rt0Nce+VDZy1fs6QXWusL9se7u0gAKtVSDcsPBti23soHfvT/s7zwqfUVGX9mhZXayv9b2ai8K+hNY5HLj+YbYz/sNc2Prus+4Wx/gmKqBuvbhiJEeCfPg3xKJj2PH13XNURm3N8B+EWMfOBH85Da0rYRVGR8SOzTFlrDFi3y4xNSkjdlalP86NrvEWfkA5FCixX5UJFxTjeKT0jJCBtDFwb6r0IRpIujuXyKH90c+OEsVUQXYoI6/Gg2kVCqNJBPSAlHFYmLsRvxJdmURkzzoxuGeapIWIAJJtb/qe/0wJLmYToVsQWYYtA5/OgGIr4twnQv2Qj/B7amYq4swhZHVBxpMsePZusiLBYJAKm2ai4HkGaKIkUz175cXRFW51z1WJMdoPNvkQ1xU9GIGDVAxDdzHcj1ZeIuq3F+UfFlh+ojuxrM4WpPiPVlimHdyPWtFUCN9i7ou2S2bSx6ZkZbu2ngOkX2T1qfCh14lz61zZ/1Gfj8kSvvhVjl8wi4Yk3GI4l9507t0OarGupP5isWq7zq66U2wg1GQ2I/lqbbZqtMflEdoyE3JP9T2/z0PzkzPtzAKtOOoK9d2HCm32NW+YpN1BMpmpR3e5Tl1dKbEbavM1MElc1UoAtrs2PUcKZQx4KGO/L4QV09fWL2sUztQEUjjjsgom2Em84c6n5JVUvEKh+LY6TSj75NypR+r7S2TheWZbqp5PpFUdSE5tDJGHWECq9LLQg+k/NDZMbNu/tKHjPBmo9OkRn0Zl2ZdkR95TwbKY+4VaPyCNXXAavGfu3AelbY6gdArDQ7Qc3ncobt63NU2WUjuv8GLQy+LKW2ZiyRNrPOOp9R42+hGd197SLtiBVdd0G/5mHXC4Sp59u3DZJmGLQAXYquVGYNycfIjAu6rGgrMvkLhKvzgvrbHbkuXfC0Gi4Vg7j0e72a0yRFt2Z8uYmESrYiM2PhcNqtZvv9ab/AubogtjGN4U68+Lp8s+fWmHyK7c+N+aLlzGs/AGKJ2fMFw2VEzH6TMJwf0rLt8JEiopEYsUh4927tHlv4LclmtrVmZc4Ags26FZlGs2NkiwY7QK3UNVnDD51v7h8sTWVmU6TVJvXQvnmBYoiEmbYiK42YPF5A+AxvJ7nHPntpjGQ7L/jLa25xij3MJ8GdVcIQNbH9CHqFCIrh8qLnXNOKG79nYosLH+GVnecGV9nJI2RmTHUrIvDe84LtgHj3dRm22PCzQzLiRnhqh4zt1ZAcoia3K+lvGLJWUnv5Grq5hK3Xm7Z9HcNSoodyZytyAOfrkcTsRyU/WsTxpc43b1n5Y0HO9uVAzlsb+59VokTGRWs5wxtA/OdhtJ+FNP6rl00eXQd1X32xXyKx9zIc+D64++rbPe9f2vu3b+/DvS/D3XsL/vzEf/nvv//+P/Ff/vvvv//++++///7777///vvvv//++++///7777///vvvv//++++///7777///vvvv//++++///7777///vvvv//++++//0/8l/9P/Jf//j/xX/7/NwUy;rotation=-90;" vertex="1" parent="1">
          <mxGeometry x="-920" y="542.5" width="150" height="75" as="geometry" />
        </mxCell>
        <mxCell id="Om9hFEvuJD6P770_q4XF-4" value="" style="shape=image;verticalLabelPosition=bottom;labelBackgroundColor=default;verticalAlign=top;aspect=fixed;imageAspect=0;image=data:image/webp,UklGRiwUAABXRUJQVlA4TCAUAAAv/8SfELWO2rZtGOf/t3vPGBFq27ZhoN0tuQIc+hK4jLjIFQ+Vvy5wS///ts2cDyhCu5t23itSxdl+lJ4YIyBQej/KLfRmpvd2JTneBg9TfJx6NclKVOEM+adeEfxnBhj+J/4plN58sWYsWo4s017aERKw/TPkJjM3m8Z2co1t4xrbxlWxndS2bdu2bdu2kTbcm935U4IkSW4jZfIELOee2SWIDjSqqA9QIP7+I5WICAv+/MR/+e+///7777///vvvv//++++///7777///vvvv//++++///7777///vvvv//++++///7777///vvvv//++++///7777///vvvv//++++///7777///pcJhgR9Ar39EmwBn0dkNcn9uwaRgZ7OkLPEflTOQRTAwNNGXGinQzQkzpLPGlHAKUm7IIbZiAR2j864SS5Ty5u4CkgxxAw+4sWbkG7dED0dYRu7tKWWh1IE64hGIkxSq8IQpZdhnI7RMXa2L2bSfAoPJMUQi/CIchyL2h+F0gkXwGmIr0bIxn7kxVi+TvKR4p3OMfwOcNdsiEK3/DFx3lkpvFnOWycPhelcr3dBnzazIQna8isn3wtlMTygdQwRHzG9t1+JMpRWAVveeaOlSGInv6WbNqKT/AUUieJaoLbuCLm7Fw40e6ns0jjfYRGF6aJex6CChGjhrbPkT1FRwkkEJ4+oWXyr/TI7IYHZujPiLHlssVfIlUm+Qy+aPz/MWZRGOCTTEXZ2L0z1kpHc1Dh/6+Rn1WYX9Gl1G5JgLO/8D2TfmWZeSl1oO4pIhKkaRwJApl2FYDpFbj61S+byGJDarghdqzJHVBwIwV5tv+/sXtgPYDJt4/wyUiDqYp4lbIFX+OUZGUls7FSWrOeTpLZLL5qfMbyfbqck5BpYMskNuIcxrF1P8hGFaR5ud4C9dhds5W3iPIeDtM+UryS8MnsTYlEEnXypTy7HpJv1Czc/J61jpodhdsKFWfzoTDmv5YLDj4ZuJM1TUZfYZiMcYPGjS2squTvFj57vujaiMdxIvLaAyi4/OjPNx3PPPXLInPMRi/h2FyS6mLcn+7RKOMWPdvKPPBjBR4cfPfd8LMYgiVcsLjwCqiOHrGzsGxb/n8uPnvOSd692IQLplhH3KI29vTrCwdSRQ3ohzH8xxY+eqzfwMWslcS8fn5nY2FfHOJziRxexbOOnw4+eez6ikzy3qSytnfyQDFEoxY8eqPYS2T7Fj55zvnXy/5vXZso29hn3MpjiR1tRyHH4KX70fPMR7YqTPEfJLfVt7NXTq1CKH/3YdK8/5yWtO8Kc82tol8YgiXb259k28fuHKJjiR6dayVCuO/zo+ee7sJRgrHkYM5A4+TfBFD+670gDz6Rl26HvvMjzKdmQhjjrQqj8KXLzqXUyg0cOP/r1nPObSDHJ85fJfX8b+/qM3AVT/Oi+NxP4McWPnnP+xSTP42RuamtmdnV3ikIoiuDKxk4Dk9W8A6T2xdx3L+woYhjneUlj39nMbPv+EQql+NED9DCaFdBJPuLnvXthRGMWgSRuJCNSHTdvAVTefaMlz2AvbVP86Dm/ydyhuyCJy3tFjy3cN1qOUCjFjy51yeSAy4+eez6GGwmBk0XxnyJnyTaY4kdnJK/krKS2hW4053yHTfLs6qUONNyBJUcolOJHl5aUccPhR6+94Efzix1FgpnZ9vkxCqDyh9jJZ4b5aO54xI9+zaJeHzOz6xF5E0zxo0tXhvDWI340b1hWeJuZrY7x02CKH526HCzkuQ/8aLn8aL4y5pGnk796E0zxo3uBzOL/JH/5bt78aCfP/XxKZuHwo4Oo/DFxprdRRLCFb9JNDDH1gx/NfWpK21CKH23u7oWDXr14Nk7xo704cghX88ZMNZjiR18dE5u4kHOULi+OHBLRSJjkOUVBaRRY8aMHRr0CTnnEj6aTw3lBOMWP3joUwe9X+4kWLnvCj+6yLkhiA/FlLzcfTPGj+/bU8kjSLnjCj+ZLsikNQ2nsu4CKH51aJNPcE72M+Hnzoy+XS4n/TO8HTA0sCab40X0vRvPNI340z5L5qaPzajuE4kcfoSOysrFT72QFb/zgRztHDuEdg/uuzu6FZ9xdKMWPtn4Yi+G94Edf3nZAEneS0alBaMWPzpO/cSe/PeJHc4OS37U0M9uGU/zoUptU9kpadpkf/GgYZ4qKP5E4+W0wNQP8DOUlnN4Aatsu3WjO+Y44ybOvlz7Qcd5oOSXBFD+6tKCQKx7xo/nLniIltOJHZ3r5cG55wo/uwDiPwNJexACFUhOEGSKXH10608JLj/jRvGNl4e+sex5O8aNTh4O5PPWIH813JnzYO7TiR/f8mUabdLN+5Qc/mof59MwqtOJHF6Gs47NH/GgeU1c6mJltV0comDrRy14Ma33iR3Mtb800HH70s3CKH13kcJB2j/jRnKFfaRJY8aMH+r08jk3yHXHeeZciSPebvF9oxY/+fpWfqOeCT/xotpJUqgZTeRen0Lehknse8aP5nmxNox2cQkDFj05NkknuiV5G/LzzDj+aTmb3Q8IpfvQZ5+T7Hozgk8uPhvnAj+ZFsih1Dab40a/uVjZ26p4s5ZVH/Gg+MrTvFlDxo69t7L6M+XR7Mg/oDkjibjI+NZqaAX4wxY9O45Lt/PCIH81tyn/XOrDiR5fqJLPN5Uf7MQN8zhW1f8IFVvxoywdyAl6SL/xoDvdyBnouPzqYypcm9H8lRbCOBD/40fxnf5FlEwdU/OhMKx/MdT/40esJPxrG6l5UOHWilyvnfZbSkQae+VHJF4ciyEfWFiEBFT/aGViS2eQzeDRVkXEf+NH8ZsqHfUIrfvSHfZnELx/40bDXTp7H+azMNqDiR69s7CKIVXzwqJIvPKepdAqs+NED1ItkxUZa33lSyRdu5EMybZcfHU5V8qVIYx9tHvGjucjA0iyYogieEic/0O1lcsALfvSmS2NoJRSczItCK370n5CikrOSblpP+NHsJKXUCKz40b9rRTk33YqMe8GP5tc3bs/jgyl+tLn86NQwGcNdSR2IWUS94EfTzYJ+n9CKH913ZQjvHX50JHrBj+Z1siz1dPnRRyiY4kenLslCnnvBj3Yr+cJXRvY9nXxAxY/uBzODdkDL5fzPfsE90ctkcmoeUPGjnQnCpBHJFr54wY9+5/CjeUBV33aKHx1KnehlqUICm3ziR3PpJxq+XyW04kfnco7SNXXkEB/40Rzv5Q0MA6tKvpRGFHDaI340HRwqcl1+9BAFU/zoTCNvmeqspR+VfGF9L3agHFjxo0s7annoBz86ppM8X9hYhJqZ3QVU/Oisdz7t0iN+NP+Y3gsIrfjRH/ZiPN+m+NE+HDmEZwfz3BO9DKj40YUfK3jrET+aVwwund2KjL8JpzpryRJ4j/jR3MpHZvqhFT+6SGI3v/3gR68nea5SXEqnKvkSTHXWspd2L2n91g9+9IYzeXmGnUq+hFP86D/FRSmnETypyHgXJLGXtFI7sJoB/mPpXiFXPeJH8+cbd+cpU/zo0Kqzlp7wo1GwpB9mUwNLQqkjh/RdaOG101lLP/jRvE1WpH7OuiMSTvGjU7tkLk994EfL5UfznXF9r9CqIuP9AKa6nbX0gx/Nw2R62ju04kenocl6PnnEj+YxdX0Hlx8dTp3o5cNo1vrEj+bKT7R+v0ZAVckXmzjP5SAdfvCjO8Ikz5lewcA4sOJHl/rkccyLioy7/Gi6OFrIp/jRwVRFxjOVvJ4LPvGj2dJLGKi4A0uOUShVyZfShkruecSP5hubi6hgih9tLj86M88ncN+L/LuI34UbiXZm94JCK370I3dGfsGjSr7w8mBB6ubyo8OpSr4UnizltUf8aN4ztHR1+NEBVb4n86qzltzNx2TGoRU/uohjOz884kdzk/LSKrDiRw/Ue8ns8KSzljG0kjifV2VcaNVZy2IgJ3zqrCWHyCp1g6vOWnLBo4qM08a+PCPA6qylR/zoDSseRg9wYMWP7jvRwHOP+NF8SNamQcFVZy2TmVOdtfSCH81vJvb9Qit+9NuX/PKoIuM8Sman1qFVZy3ToGTNG486a8lzGvpOgRU/eoD96qwl15OhqXa4w48+RIdkuz3kxt4e4pfVdtaSfbR5xI/mwt6Ax6ZT/Ogw5yyOzvf16ghV01nL51/0qLOW8JwoBlq401nLE+Qs+UGNg7SsMGvKxmXzs3XZhCxz3xYld4TbzJ21zKs451NnLdnRSx6oBzydtVyZ2Wd0+rHM4ZPOMx0s2POxsU/xDPzosjdl3PSoIuP8YHsRF/RUZPz62uyvDL92M0xS28YsFmIxpk9f37atJN7kczMzszPJRTtrmY/hrkedtaSb+T1ZXeVHH6Jnz8abkbfbZy9fLjY0kph9pzUbpC50hfP/D3J9D+3AjcTC31Q2G+ELdNaSobz3iB/Na5YVXlP86Jo6BsjMzBYdvIoTbMZK6a5LNxc7tpHo2C8Z/x/h+fzo1PVgAS894kd/gZGP3Otq3h0DZAcWWXCWlw3Npmc1WUrmvq/tUisWFnuw/64Jz3egAwgzfHzBxP1v17LraX50L4jZtLudtfSCH839fGJmXlsr+XKCbey+L6P5qvPMeQaW0skrjCO0kFCaISHAZvlH8lbQb3Z2VxYRbPaps5bco7K0qa/86KsRMXsgTTbzUVIMk83Iy9t2bEncfTDMzM4kCwgxUTcIms2XHdAnAu0flPcS2ORTRca5kNdnKnWWHz2SmH1GjxXuGKD1e27noP3DxWZ2hhYM35FRDXwAEKVZLzc6p7OWPvCjOUZezf2ElJwgs6+fesExQOs2ZhJvHqSYHaLFwpV0daCKf0vXd7vgCz+aDg7muTWYH/175nxUFy4v/LvfEXdArDYbSRYHGmH7G28t1xXVHsyPSr6w9mH0gKvD/Og0Vnqx0cUNvRdXCs5GaIHwvdKtS1ViLz4hJcn6NLQmd9aSIYpgM2uFKcSvnl2jvLysc/48ujbmKaKqQD7wo2ljaj+gJvOjr42JVWxFjoRdAL7JfmGw8hctFAPM7/yLSZ6nydzUrjZXZPzayKtmK/Jly7+fwfZ53Bj1g5o/zGVcfXPK2VdcmvneB340r2npu5zDj67D179xqmorckQ78MHrTfE7PST2kVLVV3vBj+ZmMjLVq9X86BNsv65CuzZV/bkQq8waog766ksghjrniM2Q96Ei41zdK3wsrd/8aI5X+DLiA6CPxthQ0qz07sLaLwC6rHHk2xvpktNFyZ+i+l3Jl2Nsv+CjVpUJuuRtU7zJChSzuikv+NHs7qUNNOs4P/oEmX3wTqVbkTuiPpGzaBKsdfL8vi+S6jo/emvE6wamSk0ntEkZXt8rt0Nce+VDZy1fs6QXWusL9se7u0gAKtVSDcsPBti23soHfvT/s7zwqfUVGX9mhZXayv9b2ai8K+hNY5HLj+YbYz/sNc2Prus+4Wx/gmKqBuvbhiJEeCfPg3xKJj2PH13XNURm3N8B+EWMfOBH85Da0rYRVGR8SOzTFlrDFi3y4xNSkjdlalP86NrvEWfkA5FCixX5UJFxTjeKT0jJCBtDFwb6r0IRpIujuXyKH90c+OEsVUQXYoI6/Gg2kVCqNJBPSAlHFYmLsRvxJdmURkzzoxuGeapIWIAJJtb/qe/0wJLmYToVsQWYYtA5/OgGIr4twnQv2Qj/B7amYq4swhZHVBxpMsePZusiLBYJAKm2ai4HkGaKIkUz175cXRFW51z1WJMdoPNvkQ1xU9GIGDVAxDdzHcj1ZeIuq3F+UfFlh+ojuxrM4WpPiPVlimHdyPWtFUCN9i7ou2S2bSx6ZkZbu2ngOkX2T1qfCh14lz61zZ/1Gfj8kSvvhVjl8wi4Yk3GI4l9507t0OarGupP5isWq7zq66U2wg1GQ2I/lqbbZqtMflEdoyE3JP9T2/z0PzkzPtzAKtOOoK9d2HCm32NW+YpN1BMpmpR3e5Tl1dKbEbavM1MElc1UoAtrs2PUcKZQx4KGO/L4QV09fWL2sUztQEUjjjsgom2Em84c6n5JVUvEKh+LY6TSj75NypR+r7S2TheWZbqp5PpFUdSE5tDJGHWECq9LLQg+k/NDZMbNu/tKHjPBmo9OkRn0Zl2ZdkR95TwbKY+4VaPyCNXXAavGfu3AelbY6gdArDQ7Qc3ncobt63NU2WUjuv8GLQy+LKW2ZiyRNrPOOp9R42+hGd197SLtiBVdd0G/5mHXC4Sp59u3DZJmGLQAXYquVGYNycfIjAu6rGgrMvkLhKvzgvrbHbkuXfC0Gi4Vg7j0e72a0yRFt2Z8uYmESrYiM2PhcNqtZvv9ab/AubogtjGN4U68+Lp8s+fWmHyK7c+N+aLlzGs/AGKJ2fMFw2VEzH6TMJwf0rLt8JEiopEYsUh4927tHlv4LclmtrVmZc4Ags26FZlGs2NkiwY7QK3UNVnDD51v7h8sTWVmU6TVJvXQvnmBYoiEmbYiK42YPF5A+AxvJ7nHPntpjGQ7L/jLa25xij3MJ8GdVcIQNbH9CHqFCIrh8qLnXNOKG79nYosLH+GVnecGV9nJI2RmTHUrIvDe84LtgHj3dRm22PCzQzLiRnhqh4zt1ZAcoia3K+lvGLJWUnv5Grq5hK3Xm7Z9HcNSoodyZytyAOfrkcTsRyU/WsTxpc43b1n5Y0HO9uVAzlsb+59VokTGRWs5wxtA/OdhtJ+FNP6rl00eXQd1X32xXyKx9zIc+D64++rbPe9f2vu3b+/DvS/D3XsL/vzEf/nvv//+P/Ff/vvvv//++++///7777///vvvv//++++///7777///vvvv//++++///7777///vvvv//++++///7777///vvvv//++++//0/8l/9P/Jf//j/xX/7/NwUy;rotation=-90;" vertex="1" parent="1">
          <mxGeometry x="-850" y="541" width="152" height="76" as="geometry" />
        </mxCell>
        <mxCell id="Om9hFEvuJD6P770_q4XF-6" value="" style="line;strokeWidth=2;html=1;" vertex="1" parent="1">
          <mxGeometry x="-918" y="641" width="153" height="24" as="geometry" />
        </mxCell>
        <mxCell id="Om9hFEvuJD6P770_q4XF-8" value="" style="line;strokeWidth=2;html=1;rotation=-90;" vertex="1" parent="1">
          <mxGeometry x="-1100.01" y="316.49" width="366.02" height="28" as="geometry" />
        </mxCell>
        <mxCell id="Om9hFEvuJD6P770_q4XF-9" value="" style="line;strokeWidth=2;html=1;rotation=-90;" vertex="1" parent="1">
          <mxGeometry x="-997.25" y="333.75" width="320.5" height="36" as="geometry" />
        </mxCell>
        <mxCell id="Om9hFEvuJD6P770_q4XF-10" value="" style="line;strokeWidth=2;html=1;rotation=-90;" vertex="1" parent="1">
          <mxGeometry x="-904.85" y="330" width="274.92" height="37" as="geometry" />
        </mxCell>
        <mxCell id="Om9hFEvuJD6P770_q4XF-11" value="" style="shape=image;html=1;verticalAlign=top;verticalLabelPosition=bottom;labelBackgroundColor=#ffffff;imageAspect=0;aspect=fixed;image=https://cdn1.iconfinder.com/data/icons/ui-essential-17/32/UI_Essential_Outline_1_essential-app-ui-lamp-flashlight-128.png;rotation=-180;strokeColor=#F7FF00;fillColor=#FFFF99;imageBackground=none;" vertex="1" parent="1">
          <mxGeometry x="-545" y="245" width="138" height="138" as="geometry" />
        </mxCell>
        <mxCell id="Om9hFEvuJD6P770_q4XF-12" value="" style="shape=image;html=1;verticalAlign=top;verticalLabelPosition=bottom;labelBackgroundColor=#ffffff;imageAspect=0;aspect=fixed;image=https://cdn1.iconfinder.com/data/icons/ui-essential-17/32/UI_Essential_Outline_1_essential-app-ui-lamp-flashlight-128.png;rotation=-180;" vertex="1" parent="1">
          <mxGeometry x="-409" y="250" width="128" height="128" as="geometry" />
        </mxCell>
        <mxCell id="Om9hFEvuJD6P770_q4XF-14" value="" style="shape=image;verticalLabelPosition=bottom;labelBackgroundColor=default;verticalAlign=top;aspect=fixed;imageAspect=0;image=https://static.thenounproject.com/png/1374473-200.png;" vertex="1" parent="1">
          <mxGeometry x="-787" y="470" width="40" height="40" as="geometry" />
        </mxCell>
        <mxCell id="Om9hFEvuJD6P770_q4XF-24" value="" style="shape=image;html=1;verticalAlign=top;verticalLabelPosition=bottom;labelBackgroundColor=#ffffff;imageAspect=0;aspect=fixed;image=https://cdn3.iconfinder.com/data/icons/travelling-icon-set/800/fan-128.png;fillColor=#F7FF00;strokeColor=#000000;rotation=-180;" vertex="1" parent="1">
          <mxGeometry x="-262.16" y="260.9" width="128" height="128" as="geometry" />
        </mxCell>
        <mxCell id="Om9hFEvuJD6P770_q4XF-25" value="" style="line;strokeWidth=2;html=1;" vertex="1" parent="1">
          <mxGeometry x="-957" y="120" width="763" height="10" as="geometry" />
        </mxCell>
        <mxCell id="Om9hFEvuJD6P770_q4XF-26" value="" style="line;strokeWidth=2;direction=south;html=1;" vertex="1" parent="1">
          <mxGeometry x="-479" y="124" width="6" height="126" as="geometry" />
        </mxCell>
        <mxCell id="Om9hFEvuJD6P770_q4XF-27" value="" style="line;strokeWidth=2;direction=south;html=1;" vertex="1" parent="1">
          <mxGeometry x="-353" y="124" width="10" height="89" as="geometry" />
        </mxCell>
        <mxCell id="Om9hFEvuJD6P770_q4XF-28" value="" style="line;strokeWidth=2;direction=south;html=1;aspect=fixed;" vertex="1" parent="1">
          <mxGeometry x="-203" y="125" width="16.18" height="146" as="geometry" />
        </mxCell>
        <mxCell id="Om9hFEvuJD6P770_q4XF-31" value="" style="line;strokeWidth=2;html=1;rotation=0;" vertex="1" parent="1">
          <mxGeometry x="-918" y="136" width="418" height="25" as="geometry" />
        </mxCell>
        <mxCell id="Om9hFEvuJD6P770_q4XF-33" value="" style="line;strokeWidth=2;html=1;rotation=-90;" vertex="1" parent="1">
          <mxGeometry x="-791.4" y="655.79" width="50" height="37" as="geometry" />
        </mxCell>
        <mxCell id="Om9hFEvuJD6P770_q4XF-34" value="" style="line;strokeWidth=2;html=1;rotation=-180;" vertex="1" parent="1">
          <mxGeometry x="-958" y="680" width="192" height="37" as="geometry" />
        </mxCell>
        <mxCell id="Om9hFEvuJD6P770_q4XF-35" value="" style="line;strokeWidth=2;html=1;rotation=270;" vertex="1" parent="1">
          <mxGeometry x="-1189.71" y="443.85" width="464.66" height="44" as="geometry" />
        </mxCell>
        <mxCell id="Om9hFEvuJD6P770_q4XF-36" value="" style="line;strokeWidth=2;direction=south;html=1;" vertex="1" parent="1">
          <mxGeometry x="-842" y="649.29" width="10" height="50" as="geometry" />
        </mxCell>
        <mxCell id="Om9hFEvuJD6P770_q4XF-37" value="" style="line;strokeWidth=2;direction=south;html=1;" vertex="1" parent="1">
          <mxGeometry x="-921.99" y="649.29" width="10" height="50" as="geometry" />
        </mxCell>
        <mxCell id="Om9hFEvuJD6P770_q4XF-40" value="" style="line;strokeWidth=2;html=1;rotation=0;" vertex="1" parent="1">
          <mxGeometry x="-838" y="180" width="484" height="25" as="geometry" />
        </mxCell>
        <mxCell id="Om9hFEvuJD6P770_q4XF-41" value="" style="line;strokeWidth=2;html=1;rotation=0;" vertex="1" parent="1">
          <mxGeometry x="-768" y="199" width="574" height="25" as="geometry" />
        </mxCell>
        <mxCell id="Om9hFEvuJD6P770_q4XF-45" value="" style="shape=ellipse;fillColor=#000000;strokeColor=#000000;html=1;sketch=0;" vertex="1" parent="1">
          <mxGeometry x="-353" y="120" width="10" height="10" as="geometry" />
        </mxCell>
        <mxCell id="Om9hFEvuJD6P770_q4XF-49" value="" style="shape=ellipse;fillColor=#000000;strokeColor=#000000;html=1;sketch=0;" vertex="1" parent="1">
          <mxGeometry x="-481" y="120" width="10" height="10" as="geometry" />
        </mxCell>
        <mxCell id="Om9hFEvuJD6P770_q4XF-50" value="" style="line;strokeWidth=2;direction=south;html=1;" vertex="1" parent="1">
          <mxGeometry x="-506" y="148" width="10" height="172" as="geometry" />
        </mxCell>
        <mxCell id="Om9hFEvuJD6P770_q4XF-51" value="" style="line;strokeWidth=2;direction=south;html=1;" vertex="1" parent="1">
          <mxGeometry x="-360" y="192" width="10" height="100" as="geometry" />
        </mxCell>
        <mxCell id="Om9hFEvuJD6P770_q4XF-54" value="" style="line;strokeWidth=2;direction=south;html=1;" vertex="1" parent="1">
          <mxGeometry x="-214" y="212" width="10" height="58" as="geometry" />
        </mxCell>
        <mxCell id="Om9hFEvuJD6P770_q4XF-57" value="Switch 1" style="text;html=1;align=center;verticalAlign=middle;whiteSpace=wrap;rounded=0;rotation=-90;" vertex="1" parent="1">
          <mxGeometry x="-930" y="587" width="60" height="30" as="geometry" />
        </mxCell>
        <mxCell id="Om9hFEvuJD6P770_q4XF-58" value="Switch 2" style="text;html=1;align=center;verticalAlign=middle;whiteSpace=wrap;rounded=0;rotation=-90;" vertex="1" parent="1">
          <mxGeometry x="-851.4" y="589.5" width="60" height="30" as="geometry" />
        </mxCell>
        <mxCell id="Om9hFEvuJD6P770_q4XF-59" value="Switch 3" style="text;html=1;align=center;verticalAlign=middle;whiteSpace=wrap;rounded=0;rotation=-90;" vertex="1" parent="1">
          <mxGeometry x="-780" y="587" width="60" height="30" as="geometry" />
        </mxCell>
        <mxCell id="Om9hFEvuJD6P770_q4XF-60" value="Lamp 1&amp;nbsp;" style="text;html=1;align=center;verticalAlign=middle;whiteSpace=wrap;rounded=0;rotation=0;" vertex="1" parent="1">
          <mxGeometry x="-533" y="378" width="60" height="30" as="geometry" />
        </mxCell>
        <mxCell id="Om9hFEvuJD6P770_q4XF-61" value="Lamp 2&amp;nbsp;" style="text;html=1;align=center;verticalAlign=middle;whiteSpace=wrap;rounded=0;rotation=0;" vertex="1" parent="1">
          <mxGeometry x="-370" y="378" width="60" height="30" as="geometry" />
        </mxCell>
        <mxCell id="Om9hFEvuJD6P770_q4XF-62" value="Ceiling Fan" style="text;html=1;align=center;verticalAlign=middle;whiteSpace=wrap;rounded=0;rotation=0;" vertex="1" parent="1">
          <mxGeometry x="-214" y="383" width="60" height="30" as="geometry" />
        </mxCell>
        <mxCell id="Om9hFEvuJD6P770_q4XF-63" value="Fan Regulator" style="text;html=1;align=center;verticalAlign=middle;whiteSpace=wrap;rounded=0;rotation=0;" vertex="1" parent="1">
          <mxGeometry x="-650" y="480" width="60" height="30" as="geometry" />
        </mxCell>
        <mxCell id="Om9hFEvuJD6P770_q4XF-64" value="" style="edgeStyle=orthogonalEdgeStyle;html=1;endArrow=none;elbow=vertical;startArrow=block;startFill=1;strokeColor=#545B64;rounded=0;" edge="1" parent="1">
          <mxGeometry width="100" relative="1" as="geometry">
            <mxPoint x="-747" y="489.76" as="sourcePoint" />
            <mxPoint x="-647" y="489.76" as="targetPoint" />
          </mxGeometry>
        </mxCell>
        <mxCell id="Om9hFEvuJD6P770_q4XF-68" value="" style="shape=image;html=1;verticalAlign=top;verticalLabelPosition=bottom;labelBackgroundColor=#ffffff;imageAspect=0;aspect=fixed;image=https://cdn3.iconfinder.com/data/icons/energy-and-power-glyph-24-px/24/Plug_in_power_socket_power_supply_socket_wall_socket-128.png" vertex="1" parent="1">
          <mxGeometry x="-981.88" y="213" width="49" height="49" as="geometry" />
        </mxCell>
        <mxCell id="Om9hFEvuJD6P770_q4XF-72" value="220v Alternate Current" style="text;html=1;align=center;verticalAlign=middle;whiteSpace=wrap;rounded=0;" vertex="1" parent="1">
          <mxGeometry x="-1041.88" y="219" width="60" height="30" as="geometry" />
        </mxCell>
        <mxCell id="Om9hFEvuJD6P770_q4XF-73" value="" style="line;strokeWidth=2;html=1;rotation=270;" vertex="1" parent="1">
          <mxGeometry x="-1007.99" y="149.24" width="100" height="49" as="geometry" />
        </mxCell>
      </root>
    </mxGraphModel>
  </diagram>
</mxfile>
